<?xml version="1.0" encoding="utf-8"?>
<!-- Generator: Adobe Illustrator 15.0.1, SVG Export Plug-In . SVG Version: 6.00 Build 0)  -->
<!DOCTYPE svg PUBLIC "-//W3C//DTD SVG 1.1//EN" "http://www.w3.org/Graphics/SVG/1.1/DTD/svg11.dtd">
<svg version="1.1" id="Layer_1" xmlns="http://www.w3.org/2000/svg" xmlns:xlink="http://www.w3.org/1999/xlink" x="0px" y="0px"
	 width="32px" height="32px" viewBox="0 0 512 512" enable-background="new 0 0 512 512" xml:space="preserve">
<g id="Guides_to_delete">
	<g>
		<polygon fill="#E34E26" points="107.125,470.727 74.012,99.297 437.703,99.297 404.549,470.755 255.769,512 		"/>
		<polygon fill="#EF662A" points="255.857,129.657 255.857,480.449 376.164,447.101 404.51,129.657 		"/>
		<polygon fill="#FFFFFF" points="141.761,175.217 154.041,312.978 311.936,312.978 306.637,372.066 255.799,385.811 
			205.057,372.085 201.664,334.146 155.937,334.146 162.476,407.282 255.787,433.199 349.219,407.282 361.744,267.429 
			195.706,267.429 191.538,220.777 365.732,220.777 365.873,220.777 369.953,175.217 		"/>
		<g>
			<polygon fill="#EBEBEB" points="255.857,175.217 141.761,175.217 154.041,312.978 255.857,312.978 255.857,267.429 
				195.706,267.429 191.538,220.777 255.857,220.777 			"/>
			<polygon fill="#EBEBEB" points="255.857,385.791 255.799,385.811 205.057,372.085 201.664,334.146 155.937,334.146 
				162.476,407.282 255.787,433.199 255.857,433.179 			"/>
		</g>
	</g>
</g>
</svg>
